<svg aria-hidden="true" style="position: absolute; width: 0; height: 0; overflow: hidden;" version="1.1" xmlns="http://www.w3.org/2000/svg" xmlns:xlink="http://www.w3.org/1999/xlink">
<defs>
<symbol id="icon-iconfinder_user_309035-1" viewBox="0 0 32 32">
<path fill="#fff" style="fill: var(--color1, #fff)" opacity="0.9" d="M16 16c2.946 0 5.333-2.388 5.333-5.333s-2.388-5.333-5.333-5.333-5.333 2.388-5.333 5.333c0 2.946 2.388 5.333 5.333 5.333z"></path>
<path fill="#fff" style="fill: var(--color1, #fff)" opacity="0.9" d="M16 18.667c-8.133 0-10.667 5.333-10.667 5.333v2.667h21.333v-2.667c0 0-2.533-5.333-10.667-5.333z"></path>
</symbol>
<symbol id="icon-iconfinder_icon-ios7-search-strong_211817-1" viewBox="0 0 32 32">
<path fill="#fff" style="fill: var(--color1, #fff)" opacity="0.9" d="M21.531 18.625c0.938-1.475 1.488-3.225 1.488-5.106 0-5.256-4.256-9.519-9.506-9.519-5.256 0-9.512 4.262-9.512 9.519s4.256 9.519 9.506 9.519c1.906 0 3.681-0.563 5.169-1.525l0.431-0.3 6.787 6.787 2.106-2.144-6.781-6.787 0.313-0.444zM18.837 8.2c1.419 1.419 2.2 3.306 2.2 5.313s-0.781 3.894-2.2 5.313-3.306 2.2-5.313 2.2c-2.006 0-3.894-0.781-5.313-2.2s-2.2-3.306-2.2-5.313c0-2.006 0.781-3.894 2.2-5.313s3.306-2.2 5.313-2.2c2.006 0 3.894 0.781 5.313 2.2z"></path>
</symbol>
<symbol id="icon-Group-13" viewBox="0 0 32 32">
<path fill="#fff" style="fill: var(--color1, #fff)" opacity="0.9" d="M31.78 15.89c0 8.776-7.114 15.89-15.89 15.89s-15.89-7.114-15.89-15.89c0-8.776 7.114-15.89 15.89-15.89s15.89 7.114 15.89 15.89z"></path>
<path fill="#000" style="fill: var(--color2, #000)" d="M13.732 18.44c-0.432 0-0.785 0.353-0.785 0.785s0.353 0.785 0.785 0.785 0.785-0.353 0.785-0.785c0-0.432-0.353-0.785-0.785-0.785zM11.378 12.163v0.785h0.785l1.412 2.982-0.549 0.942c-0.039 0.118-0.079 0.275-0.079 0.392 0 0.432 0.353 0.785 0.785 0.785h4.708v-0.785h-4.551c-0.039 0-0.078-0.039-0.078-0.078v-0.039l0.353-0.667h2.903c0.314 0 0.549-0.157 0.667-0.392l1.412-2.55c0.078-0.078 0.078-0.118 0.078-0.196 0-0.235-0.157-0.392-0.392-0.392h-5.807l-0.353-0.785h-1.295zM17.656 18.44c-0.432 0-0.785 0.353-0.785 0.785s0.353 0.785 0.785 0.785 0.785-0.353 0.785-0.785c0-0.432-0.353-0.785-0.785-0.785z"></path>
</symbol>
<symbol id="icon-Group-11" viewBox="0 0 32 32">
<path fill="#b6cb3c" style="fill: var(--color3, #b6cb3c)" d="M32.032 16c0 8.837-7.163 16-16 16s-16-7.163-16-16c0-8.837 7.163-16 16-16s16 7.163 16 16z"></path>
<path fill="#fff" style="fill: var(--color1, #fff)" opacity="0.9" d="M22.137 16.429h-5.724v5.676h-0.811v-5.676h-5.676v-0.811h5.676v-5.724h0.811v5.724h5.724v0.811z"></path>
</symbol>
<symbol id="icon-Group-3" viewBox="0 0 36 32">
<path fill="#fff" style="fill: var(--color1, #fff)" d="M7.022 27.36c-1.276 0-2.32 1.044-2.32 2.32s1.044 2.32 2.32 2.32c1.276 0 2.32-1.044 2.32-2.32s-1.044-2.32-2.32-2.32zM0.062 8.8v2.32h2.32l4.176 8.816-1.624 2.784c-0.116 0.348-0.232 0.812-0.232 1.16 0 1.276 1.044 2.32 2.32 2.32h13.92v-2.32h-13.456c-0.116 0-0.232-0.116-0.232-0.232v-0.116l1.044-1.972h8.584c0.928 0 1.624-0.464 1.972-1.16l4.176-7.54c0.232-0.232 0.232-0.348 0.232-0.58 0-0.696-0.464-1.16-1.16-1.16h-17.168l-1.044-2.32h-3.828zM18.622 27.36c-1.276 0-2.32 1.044-2.32 2.32s1.044 2.32 2.32 2.32c1.276 0 2.32-1.044 2.32-2.32s-1.044-2.32-2.32-2.32z"></path>
<path fill="#d8e91c" style="fill: var(--color4, #d8e91c)" opacity="0.72" d="M35.262 5.6c0 3.093-2.507 5.6-5.6 5.6s-5.6-2.507-5.6-5.6c0-3.093 2.507-5.6 5.6-5.6s5.6 2.507 5.6 5.6z"></path>
</symbol>
<symbol id="icon-burger-icon" viewBox="0 0 80 32">
<path fill="#fff" style="fill: var(--color1, #fff)" opacity="0.9" d="M0 12.787h56.265v6.862h-56.265v-6.862z"></path>
<path fill="#fff" style="fill: var(--color1, #fff)" opacity="0.9" d="M0 25.138h39.797v6.862h-39.797v-6.862z"></path>
<path fill="#fff" style="fill: var(--color1, #fff)" opacity="0.9" d="M0 0h79.595v6.862h-79.595v-6.862z"></path>
</symbol>
</defs>
</svg>
