<svg width="91" height="91" viewBox="0 0 91 91" fill="none" xmlns="http://www.w3.org/2000/svg">
<circle cx="45.1875" cy="45.1875" r="45.1875" fill="white" fill-opacity="0.9"/>
<g clip-path="url(#clip0)">
<path fill-rule="evenodd" clip-rule="evenodd" d="M39.051 52.4399C37.8237 52.4399 36.8195 53.444 36.8195 54.6713C36.8195 55.8987 37.8237 56.9028 39.051 56.9028C40.2783 56.9028 41.2825 55.8987 41.2825 54.6713C41.2825 53.444 40.2783 52.4399 39.051 52.4399ZM32.3566 34.588V36.8195H34.588L38.6047 45.2991L37.0427 47.9769C36.9311 48.3116 36.8195 48.7579 36.8195 49.0926C36.8195 50.32 37.8237 51.3241 39.051 51.3241H52.4399V49.0926H39.4973C39.3857 49.0926 39.2742 48.9811 39.2742 48.8695V48.7579L40.2783 46.8612H48.5348C49.4274 46.8612 50.0968 46.4149 50.4316 45.7454L54.4482 38.4931C54.6714 38.27 54.6714 38.1584 54.6714 37.9352C54.6714 37.2658 54.2251 36.8195 53.5556 36.8195H37.0427L36.0385 34.588H32.3566ZM50.2084 52.4399C48.9811 52.4399 47.9769 53.444 47.9769 54.6713C47.9769 55.8987 48.9811 56.9028 50.2084 56.9028C51.4357 56.9028 52.4399 55.8987 52.4399 54.6713C52.4399 53.444 51.4357 52.4399 50.2084 52.4399Z" fill="black"/>
</g>
<defs>
<clipPath id="clip0">
<rect width="22.3148" height="22.3148" fill="white" transform="translate(32.3566 34.588)"/>
</clipPath>
</defs>
</svg>
