<!-- Generated by IcoMoon.io -->
<svg version="1.1" xmlns="http://www.w3.org/2000/svg" width="36" height="32" viewBox="0 0 36 32">
<title>Group-3</title>
<path fill="#fff" d="M7.022 27.36c-1.276 0-2.32 1.044-2.32 2.32s1.044 2.32 2.32 2.32c1.276 0 2.32-1.044 2.32-2.32s-1.044-2.32-2.32-2.32zM0.062 8.8v2.32h2.32l4.176 8.816-1.624 2.784c-0.116 0.348-0.232 0.812-0.232 1.16 0 1.276 1.044 2.32 2.32 2.32h13.92v-2.32h-13.456c-0.116 0-0.232-0.116-0.232-0.232v-0.116l1.044-1.972h8.584c0.928 0 1.624-0.464 1.972-1.16l4.176-7.54c0.232-0.232 0.232-0.348 0.232-0.58 0-0.696-0.464-1.16-1.16-1.16h-17.168l-1.044-2.32h-3.828zM18.622 27.36c-1.276 0-2.32 1.044-2.32 2.32s1.044 2.32 2.32 2.32c1.276 0 2.32-1.044 2.32-2.32s-1.044-2.32-2.32-2.32z"></path>
<path fill="#d8e91c" opacity="0.72" d="M35.262 5.6c0 3.093-2.507 5.6-5.6 5.6s-5.6-2.507-5.6-5.6c0-3.093 2.507-5.6 5.6-5.6s5.6 2.507 5.6 5.6z"></path>
</svg>
