<!-- Generated by IcoMoon.io -->
<svg version="1.1" xmlns="http://www.w3.org/2000/svg" width="32" height="32" viewBox="0 0 32 32">
<title>Group-13</title>
<path fill="#fff" opacity="0.9" d="M31.78 15.89c0 8.776-7.114 15.89-15.89 15.89s-15.89-7.114-15.89-15.89c0-8.776 7.114-15.89 15.89-15.89s15.89 7.114 15.89 15.89z"></path>
<path fill="#000" d="M13.732 18.44c-0.432 0-0.785 0.353-0.785 0.785s0.353 0.785 0.785 0.785 0.785-0.353 0.785-0.785c0-0.432-0.353-0.785-0.785-0.785zM11.378 12.163v0.785h0.785l1.412 2.982-0.549 0.942c-0.039 0.118-0.079 0.275-0.079 0.392 0 0.432 0.353 0.785 0.785 0.785h4.708v-0.785h-4.551c-0.039 0-0.078-0.039-0.078-0.078v-0.039l0.353-0.667h2.903c0.314 0 0.549-0.157 0.667-0.392l1.412-2.55c0.078-0.078 0.078-0.118 0.078-0.196 0-0.235-0.157-0.392-0.392-0.392h-5.807l-0.353-0.785h-1.295zM17.656 18.44c-0.432 0-0.785 0.353-0.785 0.785s0.353 0.785 0.785 0.785 0.785-0.353 0.785-0.785c0-0.432-0.353-0.785-0.785-0.785z"></path>
</svg>
