<svg width="66" height="59" viewBox="0 0 66 59" fill="none" xmlns="http://www.w3.org/2000/svg">
<g clip-path="url(#clip0)">
<path fill-rule="evenodd" clip-rule="evenodd" d="M12.9466 50.445C10.594 50.445 8.66914 52.3699 8.66914 54.7225C8.66914 57.0752 10.594 59 12.9466 59C15.2993 59 17.2241 57.0752 17.2241 54.7225C17.2241 52.3699 15.2993 50.445 12.9466 50.445ZM0.114136 16.225V20.5025H4.39164L12.0911 36.757L9.09689 41.89C8.88301 42.5317 8.66914 43.3872 8.66914 44.0288C8.66914 46.3814 10.594 48.3063 12.9466 48.3063H38.6116V44.0288H13.8021C13.5883 44.0288 13.3744 43.8149 13.3744 43.601V43.3872L15.2993 39.7513H31.126C32.837 39.7513 34.1203 38.8958 34.7619 37.6125L42.4614 23.7107C42.8891 23.2829 42.8891 23.069 42.8891 22.6413C42.8891 21.358 42.0336 20.5025 40.7504 20.5025H9.09689L7.17201 16.225H0.114136ZM34.3341 50.445C31.9815 50.445 30.0566 52.3699 30.0566 54.7225C30.0566 57.0752 31.9815 59 34.3341 59C36.6868 59 38.6116 57.0752 38.6116 54.7225C38.6116 52.3699 36.6868 50.445 34.3341 50.445Z" fill="white"/>
</g>
<circle cx="54.6893" cy="10.325" r="10.325" fill="#D8E91C" fill-opacity="0.72"/>
<defs>
<clipPath id="clip0">
<rect width="42.775" height="42.775" fill="white" transform="translate(0.114136 16.225)"/>
</clipPath>
</defs>
</svg>
