<svg width="92" height="92" viewBox="0 0 92 92" fill="none" xmlns="http://www.w3.org/2000/svg">
<path d="M61.9023 53.5469C64.5977 49.3062 66.1789 44.275 66.1789 38.8664C66.1789 23.7547 53.9422 11.5 38.8484 11.5C23.7367 11.5 11.5 23.7547 11.5 38.8664C11.5 53.9781 23.7367 66.2328 38.8305 66.2328C44.3109 66.2328 49.4141 64.6156 53.6906 61.8484L54.9305 60.9859L74.4445 80.5L80.5 74.3367L61.0039 54.8227L61.9023 53.5469ZM54.1578 23.575C58.2367 27.6539 60.4828 33.0805 60.4828 38.8484C60.4828 44.6164 58.2367 50.043 54.1578 54.1219C50.0789 58.2008 44.6523 60.4469 38.8844 60.4469C33.1164 60.4469 27.6898 58.2008 23.6109 54.1219C19.532 50.043 17.2859 44.6164 17.2859 38.8484C17.2859 33.0805 19.532 27.6539 23.6109 23.575C27.6898 19.4961 33.1164 17.25 38.8844 17.25C44.6523 17.25 50.0789 19.4961 54.1578 23.575Z" fill="white" fill-opacity="0.9"/>
</svg>
