<!-- Generated by IcoMoon.io -->
<svg version="1.1" xmlns="http://www.w3.org/2000/svg" width="32" height="32" viewBox="0 0 32 32">
<title>iconfinder_icon-ios7-search-strong_211817-1</title>
<path fill="#fff" opacity="0.9" d="M21.531 18.625c0.938-1.475 1.488-3.225 1.488-5.106 0-5.256-4.256-9.519-9.506-9.519-5.256 0-9.512 4.262-9.512 9.519s4.256 9.519 9.506 9.519c1.906 0 3.681-0.563 5.169-1.525l0.431-0.3 6.787 6.787 2.106-2.144-6.781-6.787 0.313-0.444zM18.837 8.2c1.419 1.419 2.2 3.306 2.2 5.313s-0.781 3.894-2.2 5.313-3.306 2.2-5.313 2.2c-2.006 0-3.894-0.781-5.313-2.2s-2.2-3.306-2.2-5.313c0-2.006 0.781-3.894 2.2-5.313s3.306-2.2 5.313-2.2c2.006 0 3.894 0.781 5.313 2.2z"></path>
</svg>
